G04 ( created by brdgerber.py ( brdgerber.py v0.1 2014-03-12 ) ) date 2015-06-11 19:44:34 EDT*
G04 Gerber Fmt 3.4, Leading zero omitted, Abs format*
%MOIN*%
%FSLAX34Y34*%
G01*
G70*
G90*
G04 APERTURE LIST*
%ADD14R,0.0550X0.0350*%
%ADD13R,0.0787X0.0177*%
%ADD16R,0.3000X0.3000*%
%ADD11R,0.0350X0.0550*%
%ADD10C,0.0640*%
%ADD17R,0.0800X0.0600*%
%ADD15R,0.2000X0.2000*%
%ADD12R,0.0177X0.0787*%
G04 APERTURE END LIST*
G54D14*
D10*
G01X22700Y-03900D02*
G01X22700Y-03900D01*
D10*
G01X22700Y-02900D02*
G01X22700Y-02900D01*
D10*
G01X21700Y-02900D02*
G01X21700Y-02900D01*
D10*
G01X21700Y-03900D02*
G01X21700Y-03900D01*
D10*
G01X23700Y-03900D02*
G01X23700Y-03900D01*
D10*
G01X23700Y-02900D02*
G01X23700Y-02900D01*
D11*
X30875Y-04950D03*
D11*
X31625Y-04950D03*
D12*
X25493Y-09096D03*
D12*
X25178Y-09096D03*
D12*
X24863Y-09096D03*
D12*
X24548Y-09096D03*
D12*
X24233Y-09096D03*
D12*
X23918Y-09096D03*
D12*
X23603Y-09096D03*
D12*
X23288Y-09096D03*
D12*
X23290Y-05330D03*
D12*
X25500Y-05330D03*
D12*
X25180Y-05330D03*
D12*
X24860Y-05330D03*
D12*
X24550Y-05330D03*
D12*
X24230Y-05330D03*
D12*
X23920Y-05330D03*
D12*
X23600Y-05330D03*
D13*
X22500Y-08312D03*
D13*
X22500Y-07998D03*
D13*
X22500Y-07682D03*
D13*
X22500Y-07368D03*
D13*
X22500Y-07052D03*
D13*
X22500Y-06738D03*
D13*
X22500Y-06422D03*
D13*
X22500Y-06108D03*
D13*
X26280Y-08310D03*
D13*
X26280Y-08000D03*
D13*
X26280Y-07680D03*
D13*
X26280Y-07370D03*
D13*
X26280Y-07060D03*
D13*
X26280Y-06740D03*
D13*
X26280Y-06420D03*
D13*
X26280Y-06100D03*
D11*
X30900Y-04000D03*
D11*
X31650Y-04000D03*
D11*
X32375Y-06675D03*
D11*
X33125Y-06675D03*
D11*
X29300Y-06675D03*
D11*
X30050Y-06675D03*
D11*
X29300Y-04000D03*
D11*
X30050Y-04000D03*
D11*
X32400Y-05800D03*
D11*
X33150Y-05800D03*
D11*
X32425Y-04950D03*
D11*
X33175Y-04950D03*
D11*
X32425Y-04000D03*
D11*
X33175Y-04000D03*
D11*
X33950Y-06675D03*
D11*
X34700Y-06675D03*
D14*
X26745Y-11020D03*
D14*
X26745Y-11770D03*
D14*
X25925Y-11025D03*
D14*
X25925Y-11775D03*
D11*
X33950Y-05800D03*
D11*
X34700Y-05800D03*
D11*
X33950Y-04950D03*
D11*
X34700Y-04950D03*
D11*
X34000Y-04025D03*
D11*
X34750Y-04025D03*
D11*
X30850Y-06675D03*
D11*
X31600Y-06675D03*
D11*
X30875Y-05800D03*
D11*
X31625Y-05800D03*
D11*
X29300Y-04925D03*
D11*
X30050Y-04925D03*
D11*
X29300Y-05800D03*
D11*
X30050Y-05800D03*
D14*
X28400Y-11025D03*
D14*
X28400Y-11775D03*
D14*
X27595Y-11055D03*
D14*
X27595Y-11805D03*
D17*
X20050Y-04000D03*
D17*
X20050Y-05300D03*
M02*
